<svg width="1024" height="1024" viewBox="0 0 1024 1024" fill="none" xmlns="http://www.w3.org/2000/svg">
  <!-- Background Container (macOS Squircle shape approximation) -->
  <rect x="100" y="100" width="824" height="824" rx="180" fill="url(#bg_gradient)" />
  
  <!-- Shadow for Paper -->
  <rect x="260" y="230" width="504" height="640" rx="20" fill="black" fill-opacity="0.2" />
  
  <!-- Paper Sheet -->
  <rect x="260" y="210" width="504" height="640" rx="20" fill="#FFFFFF" />
  
  <!-- Header Line (Title) -->
  <rect x="320" y="280" width="200" height="40" rx="8" fill="#3B82F6" />
  
  <!-- List Items -->
  <!-- Item 1: Checked -->
  <rect x="320" y="380" width="40" height="40" rx="8" fill="#E5E7EB" />
  <path d="M328 398 L338 408 L352 388" stroke="#10B981" stroke-width="6" stroke-linecap="round" stroke-linejoin="round"/>
  <rect x="390" y="385" width="320" height="30" rx="6" fill="#D1D5DB" />
  
  <!-- Item 2: Checked -->
  <rect x="320" y="460" width="40" height="40" rx="8" fill="#E5E7EB" />
  <path d="M328 478 L338 488 L352 468" stroke="#10B981" stroke-width="6" stroke-linecap="round" stroke-linejoin="round"/>
  <rect x="390" y="465" width="280" height="30" rx="6" fill="#D1D5DB" />
  
  <!-- Item 3: Unchecked -->
  <rect x="320" y="540" width="40" height="40" rx="8" fill="#E5E7EB" stroke="#9CA3AF" stroke-width="2"/>
  <rect x="390" y="545" width="300" height="30" rx="6" fill="#E5E7EB" />
  
  <!-- Item 4: Unchecked -->
  <rect x="320" y="620" width="40" height="40" rx="8" fill="#E5E7EB" stroke="#9CA3AF" stroke-width="2"/>
  <rect x="390" y="625" width="240" height="30" rx="6" fill="#E5E7EB" />
  
  <!-- Gradients -->
  <defs>
    <linearGradient id="bg_gradient" x1="512" y1="100" x2="512" y2="924" gradientUnits="userSpaceOnUse">
      <stop stop-color="#60A5FA"/>
      <stop offset="1" stop-color="#2563EB"/>
    </linearGradient>
  </defs>
</svg>
